<svg xmlns="http://www.w3.org/2000/svg" xmlns:xlink="http://www.w3.org/1999/xlink" width="184.742" height="149.972" viewBox="0 0 184.742 149.972">
  <defs>
    <style>
      .cls-1, .cls-2 {
        fill: none;
      }

      .cls-3 {
        clip-path: url(#clip-path);
      }

      .cls-4 {
        fill: url(#pattern);
      }

      .cls-5, .cls-6 {
        stroke: none;
      }

      .cls-6 {
        fill: #3c3c3c;
      }
    </style>
    <clipPath id="clip-path">
      <rect id="Rectangle_1989" data-name="Rectangle 1989" class="cls-1" width="106" height="145" transform="translate(67.5 18.993)"/>
    </clipPath>
    <pattern id="pattern" preserveAspectRatio="xMidYMid slice" width="100%" height="100%" viewBox="0 0 421 585">
      <image width="421" height="585" xlink:href="Chef-image.png"/>
    </pattern>
  </defs>
  <g id="Chef" transform="translate(-1284.5 -515)">
    <g id="Union_20" data-name="Union 20" class="cls-2" transform="translate(1284.5 627.715)">
      <path class="cls-5" d="M34.178,37.258V13.632H0V0H184.742V13.632H150.566V36.349H136.709V13.632H48.032V37.258Z"/>
      <path class="cls-6" d="M 47.33178329467773 36.55757141113281 L 47.33178329467773 13.6322603225708 L 47.33178329467773 12.93226051330566 L 48.03178405761719 12.93226051330566 L 136.7089080810547 12.93226051330566 L 137.4089050292969 12.93226051330566 L 137.4089050292969 13.6322603225708 L 137.4089050292969 35.64921188354492 L 149.8655395507813 35.64921188354492 L 149.8655395507813 13.6322603225708 L 149.8655395507813 12.93226051330566 L 150.5655517578125 12.93226051330566 L 184.0418548583984 12.93226051330566 L 184.0418548583984 0.6999984383583069 L 0.6999973058700562 0.6999984383583069 L 0.6999973058700562 12.93226051330566 L 34.17752075195313 12.93226051330566 L 34.87752151489258 12.93226051330566 L 34.87752151489258 13.6322603225708 L 34.87752151489258 36.55757141113281 L 47.33178329467773 36.55757141113281 M 48.03178405761719 37.257568359375 L 34.17752075195313 37.257568359375 L 34.17752075195313 13.6322603225708 L -2.668108209036291e-06 13.6322603225708 L -2.668108209036291e-06 -1.534598254693265e-06 L 184.7418518066406 -1.534598254693265e-06 L 184.7418518066406 13.6322603225708 L 150.5655517578125 13.6322603225708 L 150.5655517578125 36.34921264648438 L 136.7089080810547 36.34921264648438 L 136.7089080810547 13.6322603225708 L 48.03178405761719 13.6322603225708 L 48.03178405761719 37.257568359375 Z"/>
    </g>
    <g id="Mask_Group_2" data-name="Mask Group 2" class="cls-3" transform="translate(1284.5 496.007)">
      <path id="Black-Chef-01" class="cls-4" d="M0,2.1,139.1,0V192.993H0Z" transform="translate(48.386)"/>
    </g>
  </g>
</svg>
