<svg xmlns="http://www.w3.org/2000/svg" xmlns:xlink="http://www.w3.org/1999/xlink" width="18.06" height="11" viewBox="0 0 18.06 11">
  <defs>
    <style>
      .cls-1 {
        fill: none;
      }

      .cls-2 {
        clip-path: url(#clip-path);
      }

      .cls-3 {
        fill: #ff5912;
      }
    </style>
    <clipPath id="clip-path">
      <rect class="cls-1" width="18.06" height="11"/>
    </clipPath>
  </defs>
  <g id="Mail_Ico" data-name="Mail Ico" class="cls-2">
    <path id="Color_Overlay" data-name="Color Overlay" class="cls-3" d="M.291,10.451A.284.284,0,0,1,0,10.175V.275A.283.283,0,0,1,.291,0h16.9a.284.284,0,0,1,.292.275v9.9a.285.285,0,0,1-.292.275ZM.583,9.9H16.9V.551H.583Zm15-1.428L10.519,5.729,9.35,6.6c-.006,0-.014,0-.021.007a.272.272,0,0,1-.318,0C9,6.6,9,6.6,8.99,6.6L7.822,5.729,2.76,8.473a.3.3,0,0,1-.145.037.3.3,0,0,1-.252-.139A.265.265,0,0,1,2.47,8L7.329,5.361,2.435,1.711a.265.265,0,0,1-.049-.386A.3.3,0,0,1,2.8,1.28L9.17,6.033,15.545,1.28a.3.3,0,0,1,.408.045.265.265,0,0,1-.048.386l-4.9,3.65L15.87,8a.264.264,0,0,1,.107.374.3.3,0,0,1-.4.1Z"/>
  </g>
</svg>
